<?xml version="1.0" encoding="UTF-8" standalone="no"?>
<!-- Created with Inkscape (http://www.inkscape.org/) -->

<svg
   version="1.1"
   id="svg1"
   width="969.87579"
   height="764.68359"
   viewBox="0 0 969.87582 764.68359"
   sodipodi:docname="frame1.png"
   xmlns:inkscape="http://www.inkscape.org/namespaces/inkscape"
   xmlns:sodipodi="http://sodipodi.sourceforge.net/DTD/sodipodi-0.dtd"
   xmlns="http://www.w3.org/2000/svg"
   xmlns:svg="http://www.w3.org/2000/svg">
  <defs
     id="defs1" />
  <sodipodi:namedview
     id="namedview1"
     pagecolor="#505050"
     bordercolor="#eeeeee"
     borderopacity="1"
     inkscape:showpageshadow="0"
     inkscape:pageopacity="0"
     inkscape:pagecheckerboard="0"
     inkscape:deskcolor="#505050">
    <inkscape:page
       x="0"
       y="0"
       width="969.87579"
       height="764.68359"
       id="page2"
       margin="0"
       bleed="0" />
  </sodipodi:namedview>
  <g
     inkscape:groupmode="layer"
     id="layer1"
     inkscape:label="Image 1"
     transform="translate(-582.75408,-337.09692)">
    <path
       style="display:inline;fill:none;stroke:#cdd6f4;stroke-width:26.242;stroke-linecap:round;stroke-dasharray:none;stroke-opacity:1"
       d="m 1035.9769,422.50886 c 0,0 30.5148,38.8725 24.9956,80.89237"
       id="path3"
       sodipodi:nodetypes="cc"
       inkscape:export-filename="frame1.svg"
       inkscape:export-xdpi="96"
       inkscape:export-ydpi="96" />
    <path
       style="fill:none;stroke:#cdd6f4;stroke-width:26.242;stroke-linecap:round;stroke-dasharray:none;stroke-opacity:1"
       d="m 1093.5885,400.38551 c 0,0 4.8513,51.47093 -2.0677,97.69027"
       id="path3-3"
       sodipodi:nodetypes="cc" />
    <path
       style="fill:none;stroke:#cdd6f4;stroke-width:26.242;stroke-linecap:round;stroke-dasharray:none;stroke-opacity:1"
       d="m 595.87509,879.62513 c 0,0 58.06977,-11.21802 79.84594,-10.55814"
       id="path4" />
    <path
       style="fill:none;stroke:#cdd6f4;stroke-width:26.242;stroke-linecap:round;stroke-dasharray:none;stroke-opacity:1"
       d="m 624.25009,968.04956 c 0,0 33.65408,-28.375 81.8256,-41.57268"
       id="path5" />
    <path
       style="fill:none;stroke:#cdd6f4;stroke-width:26.242;stroke-linecap:round;stroke-dasharray:none;stroke-opacity:1"
       d="m 700.79662,1026.1193 c 0,0 23.75581,-46.19183 50.15117,-69.94765"
       id="path6" />
    <path
       style="fill:none;stroke:#cdd6f4;stroke-width:26.242;stroke-linecap:round;stroke-dasharray:none;stroke-opacity:1"
       d="m 1435.9072,1018.8606 c 0,0 -21.7762,-37.61336 -44.2122,-60.04941"
       id="path7" />
    <path
       style="fill:none;stroke:#cdd6f4;stroke-width:26.242;stroke-linecap:round;stroke-dasharray:none;stroke-opacity:1"
       d="m 1511.1339,959.47107 c 0,0 -40.9128,-31.01454 -90.404,-44.8721"
       id="path8" />
    <path
       style="fill:none;stroke:#cdd6f4;stroke-width:26.242;stroke-linecap:round;stroke-dasharray:none;stroke-opacity:1"
       d="m 1539.5089,872.36641 c 0,0 -42.8924,-9.23837 -114.1599,-11.21803"
       id="path9" />
    <path
       id="path1"
       style="fill:#1e1e2e;fill-opacity:1;stroke:#cdd6f4;stroke-width:16.1;stroke-dasharray:none;stroke-opacity:1"
       d="m 1388.9922,347.15234 c -58.3326,-1.52412 -153.8744,39.9018 -250.2149,142.05469 -22.4168,-4.5186 -46.3521,-7.06641 -72.1113,-7.06641 -21.5574,0 -41.8363,1.78484 -61.0176,5.01563 C 900.00096,375.39906 795.60708,328.70077 740.50195,350.42578 c -56.89952,22.43246 -47.82837,90.09907 -34.2539,246.23828 -46.9894,56.75599 -72.59375,129.31412 -72.59375,190.27149 -1e-5,81.36708 37.62058,169.40035 118.82617,226.93555 81.2056,57.5352 199.34349,79.8594 314.18553,79.8594 114.8421,0 232.9819,-22.3242 314.1875,-79.8594 81.2056,-57.53519 118.8262,-145.56847 118.8262,-226.93555 0,-55.68876 -21.3705,-121.05994 -60.8926,-175.21875 14.2469,-159.55577 25.8112,-238.13417 -32.9258,-261.29102 -5.1976,-2.04917 -10.8347,-3.11577 -16.8691,-3.27344 z"
       inkscape:label="head"
       sodipodi:nodetypes="scscscssssscss" />
  </g>
  <g
     inkscape:groupmode="layer"
     id="layer3"
     inkscape:label="Image 3"
     transform="matrix(1.1593625,0,0,1.0900621,-707.92409,-369.70154)"
     style="opacity:1">
    <ellipse
       style="display:inline;fill:#cdd6f4;fill-opacity:1;stroke:none;stroke-width:16.1;stroke-linecap:round;stroke-dasharray:none;stroke-opacity:1"
       id="path10"
       cx="867.42487"
       cy="719.51001"
       rx="117.11869"
       ry="150.24788" />
    <ellipse
       style="fill:#1e1e2e;fill-opacity:1;stroke:none;stroke-width:22.2788;stroke-linecap:round;stroke-dasharray:none;stroke-opacity:1"
       id="path11"
       cx="886.85712"
       cy="721.65033"
       rx="51.918594"
       ry="111.29473" />
    <ellipse
       style="display:inline;fill:#cdd6f4;fill-opacity:1;stroke:none;stroke-width:16.1;stroke-linecap:round;stroke-dasharray:none;stroke-opacity:1"
       id="ellipse11"
       cx="-1188.2915"
       cy="719.51001"
       rx="117.11869"
       ry="150.24788"
       transform="scale(-1,1)" />
    <ellipse
       style="fill:#1e1e2e;fill-opacity:1;stroke:none;stroke-width:22.2788;stroke-linecap:round;stroke-dasharray:none;stroke-opacity:1"
       id="ellipse12"
       cx="-1168.8593"
       cy="721.65033"
       rx="51.918594"
       ry="111.29473"
       transform="scale(-1,1)" />
  </g>
</svg>
