<?xml version="1.0" encoding="UTF-8" standalone="no"?>
<!-- Created with Inkscape (http://www.inkscape.org/) -->

<svg
   version="1.1"
   id="svg1"
   width="969.87579"
   height="764.71368"
   viewBox="0 0 969.87582 764.71368"
   sodipodi:docname="face_13.svg"
   inkscape:version="1.4.2 (ebf0e940d0, 2025-05-08)"
   xmlns:inkscape="http://www.inkscape.org/namespaces/inkscape"
   xmlns:sodipodi="http://sodipodi.sourceforge.net/DTD/sodipodi-0.dtd"
   xmlns="http://www.w3.org/2000/svg"
   xmlns:svg="http://www.w3.org/2000/svg">
  <defs
     id="defs1" />
  <sodipodi:namedview
     id="namedview1"
     pagecolor="#505050"
     bordercolor="#eeeeee"
     borderopacity="1"
     inkscape:showpageshadow="0"
     inkscape:pageopacity="0"
     inkscape:pagecheckerboard="0"
     inkscape:deskcolor="#505050"
     inkscape:zoom="0.20851278"
     inkscape:cx="67.142167"
     inkscape:cy="1371.6185"
     inkscape:window-width="1251"
     inkscape:window-height="1361"
     inkscape:window-x="0"
     inkscape:window-y="0"
     inkscape:window-maximized="1"
     inkscape:current-layer="layer1">
    <inkscape:page
       x="0"
       y="0"
       width="969.87579"
       height="764.71368"
       id="page2"
       margin="0"
       bleed="0" />
  </sodipodi:namedview>
  <g
     inkscape:groupmode="layer"
     id="layer1"
     inkscape:label="Image 1"
     transform="translate(-582.75408,-337.06683)">
    <path
       style="display:inline;fill:none;stroke:#f4cddb;stroke-width:26.242;stroke-linecap:round;stroke-dasharray:none;stroke-opacity:1"
       d="m 1035.9769,422.50886 c 0,0 30.5148,38.8725 24.9956,80.89237"
       id="path3"
       sodipodi:nodetypes="cc"
       inkscape:export-filename="face_12.svg"
       inkscape:export-xdpi="96"
       inkscape:export-ydpi="96" />
    <path
       style="fill:none;stroke:#f4cddb;stroke-width:26.242;stroke-linecap:round;stroke-dasharray:none;stroke-opacity:1"
       d="m 1093.5885,400.38551 c 0,0 4.8513,51.47093 -2.0677,97.69027"
       id="path3-3"
       sodipodi:nodetypes="cc" />
    <path
       style="fill:none;stroke:#f4cddb;stroke-width:26.242;stroke-linecap:round;stroke-dasharray:none;stroke-opacity:1"
       d="m 595.87509,879.62513 c 0,0 58.06977,-11.21802 79.84594,-10.55814"
       id="path4" />
    <path
       style="fill:none;stroke:#f4cddb;stroke-width:26.242;stroke-linecap:round;stroke-dasharray:none;stroke-opacity:1"
       d="m 624.25009,968.04956 c 0,0 33.65408,-28.375 81.8256,-41.57268"
       id="path5" />
    <path
       style="fill:none;stroke:#f4cddb;stroke-width:26.242;stroke-linecap:round;stroke-dasharray:none;stroke-opacity:1"
       d="m 700.79662,1026.1193 c 0,0 23.75581,-46.19183 50.15117,-69.94765"
       id="path6" />
    <path
       style="fill:none;stroke:#f4cddb;stroke-width:26.242;stroke-linecap:round;stroke-dasharray:none;stroke-opacity:1"
       d="m 1435.9072,1018.8606 c 0,0 -21.7762,-37.61336 -44.2122,-60.04941"
       id="path7" />
    <path
       style="fill:none;stroke:#f4cddb;stroke-width:26.242;stroke-linecap:round;stroke-dasharray:none;stroke-opacity:1"
       d="m 1511.1339,959.47107 c 0,0 -40.9128,-31.01454 -90.404,-44.8721"
       id="path8" />
    <path
       style="fill:none;stroke:#f4cddb;stroke-width:26.242;stroke-linecap:round;stroke-dasharray:none;stroke-opacity:1"
       d="m 1539.5089,872.36641 c 0,0 -42.8924,-9.23837 -114.1599,-11.21803"
       id="path9" />
    <path
       id="path1"
       style="fill:#2e1e2a;fill-opacity:1;stroke:#f4cddb;stroke-width:16.1;stroke-dasharray:none;stroke-opacity:1"
       d="m 1444.9922,369.15234 c -58.3326,-1.52412 -209.8744,17.9018 -306.2149,120.05469 -22.4168,-4.5186 -46.3521,-7.06641 -72.1113,-7.06641 -21.5574,0 -41.8363,1.78484 -61.0176,5.01563 C 900.00096,375.39906 737.60708,356.70077 682.50195,378.42578 c -56.89952,22.43246 10.17163,56.09907 23.7461,212.23828 -46.9894,56.75599 -72.59375,135.31412 -72.59375,196.27149 -1e-5,81.36708 37.62058,169.40035 118.82617,226.93555 81.2056,57.5352 199.34349,79.8594 314.18553,79.8594 114.8421,0 232.9819,-22.3242 314.1875,-79.8594 81.2056,-57.53519 118.8262,-145.56847 118.8262,-226.93555 0,-55.68876 -21.3705,-127.05994 -60.8926,-181.21875 14.2469,-159.55577 81.8112,-210.13417 23.0742,-233.29102 -5.1976,-2.04917 -10.8347,-3.11577 -16.8691,-3.27344 z"
       inkscape:label="head"
       sodipodi:nodetypes="scscscssssscss" />
  </g>
  <g
     inkscape:groupmode="layer"
     id="layer3"
     inkscape:label="Image 3"
     transform="matrix(1.1593625,0,0,1.0900621,-707.92409,-369.67145)"
     style="opacity:1">
    <g
       id="g12"
       transform="translate(8.62543)"
       style="display:none">
      <path
         id="path10"
         style="display:inline;fill:#cdd6f4;stroke-width:16.0998;stroke-linecap:round;stroke-dasharray:none"
         d="m 984.54356,594.74607 c 0,82.97961 -38.63513,1.63251 -103.318,1.63251 -64.68287,0 -130.91938,169.41548 -130.91938,86.43587 0,-82.97961 53.51588,-137.72857 117.11869,-150.24788 63.22035,-12.44403 117.11869,21.19849 117.11869,62.1795 z"
         sodipodi:nodetypes="sssss" />
      <ellipse
         style="fill:#1e1e2e;fill-opacity:1;stroke:none;stroke-width:22.2788;stroke-linecap:round;stroke-dasharray:none;stroke-opacity:1"
         id="path11"
         cx="886.85712"
         cy="684.95477"
         rx="51.918594"
         ry="111.29473" />
      <path
         id="path16"
         style="display:none;fill:none;stroke:#cdd6f4;stroke-width:7.11631;stroke-linecap:round;stroke-dasharray:none;stroke-opacity:1"
         d="m 984.54356,682.81445 c 0,82.97961 -47.26056,65.84902 -111.94343,65.84902 -64.68287,0 -122.29395,17.13059 -122.29395,-65.84902 0,-82.97961 52.43582,-150.24788 117.11869,-150.24788 64.68287,0 117.11869,67.26827 117.11869,150.24788 z"
         sodipodi:nodetypes="sssss" />
    </g>
    <g
       id="g13"
       transform="translate(-8.62543)"
       style="display:none">
      <path
         id="ellipse11"
         style="display:inline;fill:#cdd6f4;stroke-width:16.1;stroke-linecap:round"
         transform="scale(-1,1)"
         d="m -1071.1728,594.74607 c -14.8211,81.46861 -36.9101,3.46728 -101.593,3.46727 -64.6829,10e-6 -132.6444,167.58073 -132.6444,84.60111 0,-82.97962 66.5784,-124.4994 117.1187,-150.24788 50.5403,-25.74848 128.8189,-2.13408 117.1187,62.1795 z"
         sodipodi:nodetypes="ssszs" />
      <ellipse
         style="fill:#1e1e2e;fill-opacity:1;stroke:none;stroke-width:22.2788;stroke-linecap:round;stroke-dasharray:none;stroke-opacity:1"
         id="ellipse12"
         cx="-1168.8593"
         cy="684.95477"
         rx="51.918594"
         ry="111.29473"
         transform="scale(-1,1)" />
    </g>
    <path
       id="path15"
       style="display:inline;fill:#f38b91;fill-opacity:1;stroke-width:12.3959;stroke-linecap:round"
       d="m 1246.5036,741.40784 c -1.791,174.45962 -69.5624,239.40132 -216.2981,239.40132 -146.7357,0 -209.8663,-70.37167 -207.67254,-233.89704 0.6887,-51.33649 87.79871,-98.5553 206.06264,-98.5553 118.264,0 218.3959,45.53063 217.908,93.05102 z"
       sodipodi:nodetypes="szszs" />
    <path
       style="display:inline;fill:none;stroke:#f4cddb;stroke-width:31.1338;stroke-linecap:round;stroke-dasharray:none;stroke-opacity:1"
       d="m 828.56311,607.16965 c 0,0 66.7225,-66.93533 161.86382,-30.28028"
       id="path2" />
    <path
       style="display:inline;fill:none;stroke:#f4cddb;stroke-width:31.1338;stroke-linecap:round;stroke-dasharray:none;stroke-opacity:1"
       d="m 1240.565,607.16965 c 0,0 -66.7227,-66.93533 -161.8642,-30.28028"
       id="path12" />
  </g>
</svg>
