<?xml version="1.0" encoding="UTF-8" standalone="no"?>
<!-- Created with Inkscape (http://www.inkscape.org/) -->

<svg
   version="1.1"
   id="svg1"
   width="969.87579"
   height="764.71368"
   viewBox="0 0 969.87582 764.71368"
   sodipodi:docname="face_4.svg"
   inkscape:export-filename="face_3.2.svg"
   inkscape:export-xdpi="96"
   inkscape:export-ydpi="96"
   xmlns:inkscape="http://www.inkscape.org/namespaces/inkscape"
   xmlns:sodipodi="http://sodipodi.sourceforge.net/DTD/sodipodi-0.dtd"
   xmlns="http://www.w3.org/2000/svg"
   xmlns:svg="http://www.w3.org/2000/svg">
  <defs
     id="defs1" />
  <sodipodi:namedview
     id="namedview1"
     pagecolor="#505050"
     bordercolor="#eeeeee"
     borderopacity="1"
     inkscape:showpageshadow="0"
     inkscape:pageopacity="0"
     inkscape:pagecheckerboard="0"
     inkscape:deskcolor="#505050">
    <inkscape:page
       x="0"
       y="0"
       width="969.87579"
       height="764.71368"
       id="page2"
       margin="0"
       bleed="0" />
  </sodipodi:namedview>
  <g
     inkscape:groupmode="layer"
     id="layer1"
     inkscape:label="Image 1"
     transform="translate(-582.75408,-337.06683)">
    <path
       style="display:inline;fill:none;stroke:#cdd6f4;stroke-width:26.242;stroke-linecap:round;stroke-dasharray:none;stroke-opacity:1"
       d="m 1035.9769,422.50886 c 0,0 30.5148,38.8725 24.9956,80.89237"
       id="path3"
       sodipodi:nodetypes="cc"
       inkscape:export-filename="face_3.4.svg"
       inkscape:export-xdpi="96"
       inkscape:export-ydpi="96" />
    <path
       style="fill:none;stroke:#cdd6f4;stroke-width:26.242;stroke-linecap:round;stroke-dasharray:none;stroke-opacity:1"
       d="m 1093.5885,400.38551 c 0,0 4.8513,51.47093 -2.0677,97.69027"
       id="path3-3"
       sodipodi:nodetypes="cc" />
    <path
       style="fill:none;stroke:#cdd6f4;stroke-width:26.242;stroke-linecap:round;stroke-dasharray:none;stroke-opacity:1"
       d="m 595.87509,879.62513 c 0,0 58.06977,-11.21802 79.84594,-10.55814"
       id="path4" />
    <path
       style="fill:none;stroke:#cdd6f4;stroke-width:26.242;stroke-linecap:round;stroke-dasharray:none;stroke-opacity:1"
       d="m 624.25009,968.04956 c 0,0 33.65408,-28.375 81.8256,-41.57268"
       id="path5" />
    <path
       style="fill:none;stroke:#cdd6f4;stroke-width:26.242;stroke-linecap:round;stroke-dasharray:none;stroke-opacity:1"
       d="m 700.79662,1026.1193 c 0,0 23.75581,-46.19183 50.15117,-69.94765"
       id="path6" />
    <path
       style="fill:none;stroke:#cdd6f4;stroke-width:26.242;stroke-linecap:round;stroke-dasharray:none;stroke-opacity:1"
       d="m 1435.9072,1018.8606 c 0,0 -21.7762,-37.61336 -44.2122,-60.04941"
       id="path7" />
    <path
       style="fill:none;stroke:#cdd6f4;stroke-width:26.242;stroke-linecap:round;stroke-dasharray:none;stroke-opacity:1"
       d="m 1511.1339,959.47107 c 0,0 -40.9128,-31.01454 -90.404,-44.8721"
       id="path8" />
    <path
       style="fill:none;stroke:#cdd6f4;stroke-width:26.242;stroke-linecap:round;stroke-dasharray:none;stroke-opacity:1"
       d="m 1539.5089,872.36641 c 0,0 -42.8924,-9.23837 -114.1599,-11.21803"
       id="path9" />
    <path
       id="path1"
       style="fill:#1e1e2e;fill-opacity:1;stroke:#cdd6f4;stroke-width:16.1;stroke-dasharray:none;stroke-opacity:1"
       d="m 1396.9922,347.15234 c -58.3326,-1.52412 -161.8744,39.9018 -258.2149,142.05469 -22.4168,-4.5186 -46.3521,-7.06641 -72.1113,-7.06641 -21.5574,0 -41.8363,1.78484 -61.0176,5.01563 C 900.00096,375.39906 787.60708,328.70077 732.50195,350.42578 c -56.89952,22.43246 -39.82837,84.09907 -26.2539,240.23828 -46.9894,56.75599 -72.59375,135.31412 -72.59375,196.27149 -1e-5,81.36708 37.62058,169.40035 118.82617,226.93555 81.2056,57.5352 199.34349,79.8594 314.18553,79.8594 114.8421,0 232.9819,-22.3242 314.1875,-79.8594 81.2056,-57.53519 118.8262,-145.56847 118.8262,-226.93555 0,-55.68876 -21.3705,-127.05994 -60.8926,-181.21875 14.2469,-159.55577 33.8112,-232.13417 -24.9258,-255.29102 -5.1976,-2.04917 -10.8347,-3.11577 -16.8691,-3.27344 z"
       inkscape:label="head"
       sodipodi:nodetypes="scscscssssscss" />
  </g>
  <g
     inkscape:groupmode="layer"
     id="layer3"
     inkscape:label="Image 3"
     transform="matrix(1.1593625,0,0,1.0900621,-707.92409,-369.67145)"
     style="opacity:1">
    <g
       id="g12"
       transform="translate(8.62543)">
      <path
         id="path10"
         style="display:inline;fill:#cdd6f4;stroke-width:16.0998;stroke-linecap:round;stroke-dasharray:none"
         d="m 984.54356,682.81445 c 0,82.97961 -36.91004,82.36185 -101.59291,82.36185 -64.68287,0 -129.1943,26.30437 -129.1943,-56.67524 0,-82.97961 48.98565,-175.93449 113.66852,-175.93449 64.68287,0 117.11869,67.26827 117.11869,150.24788 z"
         sodipodi:nodetypes="sssss" />
      <ellipse
         style="fill:#1e1e2e;fill-opacity:1;stroke:none;stroke-width:22.2788;stroke-linecap:round;stroke-dasharray:none;stroke-opacity:1"
         id="path11"
         cx="886.85712"
         cy="684.95477"
         rx="51.918594"
         ry="111.29473" />
      <path
         id="path16"
         style="display:none;fill:none;stroke:#cdd6f4;stroke-width:7.11631;stroke-linecap:round;stroke-dasharray:none;stroke-opacity:1"
         d="m 984.54356,682.81445 c 0,82.97961 -47.26056,65.84902 -111.94343,65.84902 -64.68287,0 -122.29395,17.13059 -122.29395,-65.84902 0,-82.97961 52.43582,-150.24788 117.11869,-150.24788 64.68287,0 117.11869,67.26827 117.11869,150.24788 z"
         sodipodi:nodetypes="sssss" />
    </g>
    <g
       id="g13"
       transform="translate(-8.62543)">
      <path
         id="ellipse11"
         style="display:inline;fill:#cdd6f4;stroke-width:16.1;stroke-linecap:round"
         transform="scale(-1,1)"
         d="m -1071.1728,682.81445 c 0,82.97962 -35.185,87.86613 -99.8679,87.86612 -64.6829,10e-6 -130.9193,20.80011 -130.9193,-62.17951 0,-82.97962 48.9856,-175.9345 113.6685,-175.93449 64.6829,-10e-6 117.1187,67.26826 117.1187,150.24788 z"
         sodipodi:nodetypes="sssss" />
      <ellipse
         style="fill:#1e1e2e;fill-opacity:1;stroke:none;stroke-width:22.2788;stroke-linecap:round;stroke-dasharray:none;stroke-opacity:1"
         id="ellipse12"
         cx="-1168.8593"
         cy="684.95477"
         rx="51.918594"
         ry="111.29473"
         transform="scale(-1,1)" />
    </g>
    <path
       id="path15"
       style="display:inline;fill:#f38ba8;stroke-width:12.3959;stroke-linecap:round"
       d="m 1198.2012,891.85799 c -2.989,29.90047 -44.698,88.95117 -164.5455,88.95117 -119.84754,0 -165.53195,-46.90431 -167.99557,-88.95117 -1.54761,-26.41316 48.12172,-17.82595 166.38567,-17.82595 118.264,0 168.715,-7.7783 166.1554,17.82595 z"
       sodipodi:nodetypes="szszs" />
  </g>
</svg>
